# Blender v2.66 (sub 1) OBJ File: 'cylinder.blend'
# www.blender.org
o Cone
v 0.149411 -0.084854 -2.814270
v 0.765833 -0.084854 -2.753558
v 1.358566 -0.084854 -2.573755
v 1.904832 -0.084854 -2.281769
v 2.383638 -0.084854 -1.888823
v 2.776584 -0.084854 -1.410017
v 3.068569 -0.084854 -0.863751
v 3.248373 -0.084854 -0.271018
v 3.309085 -0.084854 0.345404
v 0.149411 6.234495 0.345404
v 3.248373 -0.084854 0.961826
v 3.068569 -0.084854 1.554559
v 2.776584 -0.084854 2.100825
v 2.383638 -0.084854 2.579631
v 1.904832 -0.084854 2.972578
v 1.358565 -0.084854 3.264563
v 0.765832 -0.084854 3.444366
v 0.149410 -0.084854 3.505079
v -0.467013 -0.084854 3.444366
v -1.059746 -0.084854 3.264562
v -1.606012 -0.084854 2.972576
v -2.084818 -0.084854 2.579630
v -2.477764 -0.084854 2.100823
v -2.769749 -0.084854 1.554557
v -2.949552 -0.084854 0.961823
v -3.010264 -0.084854 0.345401
v -2.949551 -0.084854 -0.271021
v -2.769747 -0.084854 -0.863754
v -2.477761 -0.084854 -1.410020
v -2.084814 -0.084854 -1.888826
v -1.606007 -0.084854 -2.281772
v -1.059740 -0.084854 -2.573756
v -0.467007 -0.084854 -2.753559
vn -0.330668 -0.503281 -0.798334
vn 0.000000 1.000000 0.000000
vn -0.168554 -0.503281 -0.847499
vn 0.000000 -0.503281 -0.864101
vn 0.168554 -0.503281 -0.847499
vn 0.330668 -0.503281 -0.798334
vn -0.480056 -0.503281 -0.718467
vn -0.611011 -0.503281 -0.611011
vn -0.718467 -0.503281 -0.480056
vn -0.798334 -0.503281 -0.330668
vn -0.847499 -0.503281 -0.168554
vn -0.864101 -0.503281 0.000000
vn -0.847499 -0.503281 0.168554
vn -0.798334 -0.503281 0.330668
vn -0.718467 -0.503281 0.480056
vn -0.611011 -0.503281 0.611011
vn -0.480056 -0.503281 0.718467
vn -0.330668 -0.503281 0.798334
vn -0.168554 -0.503281 0.847499
vn 0.000000 -0.503281 0.864101
vn 0.168554 -0.503281 0.847499
vn 0.330668 -0.503281 0.798334
vn 0.480056 -0.503281 0.718467
vn 0.611011 -0.503281 0.611011
vn 0.718467 -0.503281 0.480056
vn 0.798334 -0.503281 0.330668
vn 0.847499 -0.503281 0.168554
vn 0.864101 -0.503281 0.000000
vn 0.847499 -0.503281 -0.168554
vn 0.798334 -0.503281 -0.330668
vn 0.718467 -0.503281 -0.480056
vn 0.611011 -0.503281 -0.611011
vn 0.480056 -0.503281 -0.718467
s 1
f 32//1 10//2 33//3
f 1//4 10//2 2//5
f 33//3 10//2 1//4
f 2//5 10//2 3//6
f 31//7 10//2 32//1
f 30//8 10//2 31//7
f 29//9 10//2 30//8
f 28//10 10//2 29//9
f 27//11 10//2 28//10
f 26//12 10//2 27//11
f 25//13 10//2 26//12
f 24//14 10//2 25//13
f 23//15 10//2 24//14
f 22//16 10//2 23//15
f 21//17 10//2 22//16
f 20//18 10//2 21//17
f 19//19 10//2 20//18
f 18//20 10//2 19//19
f 17//21 10//2 18//20
f 16//22 10//2 17//21
f 15//23 10//2 16//22
f 14//24 10//2 15//23
f 13//25 10//2 14//24
f 12//26 10//2 13//25
f 11//27 10//2 12//26
f 9//28 10//2 11//27
f 8//29 10//2 9//28
f 7//30 10//2 8//29
f 6//31 10//2 7//30
f 5//32 10//2 6//31
f 4//33 10//2 5//32
f 3//6 10//2 4//33
f 1//4 2//5 33//3
f 2//5 3//6 33//3
f 3//6 4//33 33//3
f 4//33 5//32 33//3
f 5//32 6//31 33//3
f 6//31 7//30 33//3
f 7//30 8//29 33//3
f 8//29 9//28 33//3
f 9//28 11//27 33//3
f 11//27 12//26 33//3
f 12//26 13//25 33//3
f 13//25 14//24 33//3
f 14//24 15//23 33//3
f 15//23 16//22 33//3
f 16//22 17//21 33//3
f 17//21 18//20 33//3
f 18//20 19//19 33//3
f 19//19 20//18 33//3
f 20//18 21//17 33//3
f 21//17 22//16 33//3
f 22//16 23//15 33//3
f 23//15 24//14 33//3
f 24//14 25//13 33//3
f 25//13 26//12 33//3
f 26//12 27//11 33//3
f 27//11 28//10 33//3
f 28//10 29//9 33//3
f 29//9 30//8 33//3
f 30//8 31//7 33//3
f 31//7 32//1 33//3
